
  <svg width="320" height="192" viewBox="0 0 320 192" xmlns="http://www.w3.org/2000/svg">
    <defs>
      <linearGradient id="bg" x1="0" y1="0" x2="1" y2="1">
        <stop offset="0%" stop-color="#2A1A13"/>
        <stop offset="100%" stop-color="#6E3B1E"/>
      </linearGradient>
      <linearGradient id="panel" x1="0" y1="0" x2="1" y2="1">
        <stop offset="0%" stop-color="rgba(255,255,255,0.16)"/>
        <stop offset="100%" stop-color="rgba(255,255,255,0.04)"/>
      </linearGradient>
    </defs>
    <rect width="320" height="192" rx="24" fill="url(#bg)"/>
    <path d="M0 138C55 116 102 112 154 124C198 134 248 132 320 104V192H0Z" fill="#F29E4C" fill-opacity="0.16"/>
    <path d="M0 160C65 142 120 140 182 150C236 159 281 159 320 146V192H0Z" fill="#F1E3D3" fill-opacity="0.15"/>
    <rect x="14" y="14" width="292" height="164" rx="18" fill="rgba(255,255,255,0.04)" stroke="rgba(255,255,255,0.22)" stroke-width="1.5"/>
    <rect x="20" y="22" width="94" height="94" rx="20" fill="rgba(255,255,255,0.06)" stroke="rgba(255,255,255,0.18)" stroke-width="1.5"/>
    <g transform="translate(30 34) scale(0.42)">
      <rect x="8" y="28" width="72" height="54" rx="18" fill="#F8FAFC" fill-opacity="0.12" stroke="#F8FAFC" stroke-width="8"/>
      <rect x="156" y="12" width="72" height="54" rx="18" fill="#F8FAFC" fill-opacity="0.12" stroke="#F8FAFC" stroke-width="8"/>
      <rect x="82" y="118" width="72" height="54" rx="18" fill="#F8FAFC" fill-opacity="0.12" stroke="#F8FAFC" stroke-width="8"/>
      <path d="M80 55H140M194 66V102M118 118V92" stroke="#F8FAFC" stroke-width="8" stroke-linecap="round"/>
      <path d="M132 47L142 55L132 63M186 92L194 102L202 92M110 100L118 92L126 100" stroke="#F8FAFC" stroke-width="8" fill="none" stroke-linecap="round" stroke-linejoin="round"/>
    </g>
    <rect x="124" y="26" width="170" height="62" rx="14" fill="rgba(255,255,255,0.05)"/>
    <rect x="20" y="126" width="274" height="44" rx="14" fill="rgba(7,14,32,0.18)"/>
    <text x="132" y="132" fill="#F8FAFC" font-family="Arial, sans-serif" font-size="18" font-weight="700">aicoldemailer</text>
    <text x="132" y="158" fill="rgba(248,250,252,0.86)" font-family="Arial, sans-serif" font-size="10.5" font-weight="500">Job Application Automation</text>
  </svg>