
  <svg width="320" height="192" viewBox="0 0 320 192" xmlns="http://www.w3.org/2000/svg">
    <defs>
      <linearGradient id="bg" x1="0" y1="0" x2="1" y2="1">
        <stop offset="0%" stop-color="#071E3D"/>
        <stop offset="100%" stop-color="#1F4287"/>
      </linearGradient>
      <linearGradient id="panel" x1="0" y1="0" x2="1" y2="1">
        <stop offset="0%" stop-color="rgba(255,255,255,0.16)"/>
        <stop offset="100%" stop-color="rgba(255,255,255,0.04)"/>
      </linearGradient>
    </defs>
    <rect width="320" height="192" rx="24" fill="url(#bg)"/>
    <path d="M0 138C55 116 102 112 154 124C198 134 248 132 320 104V192H0Z" fill="#4EA8DE" fill-opacity="0.16"/>
    <path d="M0 160C65 142 120 140 182 150C236 159 281 159 320 146V192H0Z" fill="#A9F1DF" fill-opacity="0.15"/>
    <rect x="14" y="14" width="292" height="164" rx="18" fill="rgba(255,255,255,0.04)" stroke="rgba(255,255,255,0.22)" stroke-width="1.5"/>
    <rect x="20" y="22" width="94" height="94" rx="20" fill="rgba(255,255,255,0.06)" stroke="rgba(255,255,255,0.18)" stroke-width="1.5"/>
    <g transform="translate(30 34) scale(0.42)">
    <rect x="8" y="12" width="220" height="156" rx="28" fill="#F8FAFC" fill-opacity="0.1" stroke="#F8FAFC" stroke-width="8"/>
    <path d="M38 132L86 92L128 110L178 64" stroke="#F8FAFC" stroke-width="10" stroke-linecap="round" stroke-linejoin="round"/>
    <circle cx="38" cy="132" r="8" fill="#F8FAFC"/>
    <circle cx="86" cy="92" r="8" fill="#F8FAFC"/>
    <circle cx="128" cy="110" r="8" fill="#F8FAFC"/>
    <circle cx="178" cy="64" r="8" fill="#F8FAFC"/>
  </g>
    <rect x="124" y="26" width="170" height="62" rx="14" fill="rgba(255,255,255,0.05)"/>
    <rect x="20" y="126" width="274" height="44" rx="14" fill="rgba(7,14,32,0.18)"/>
    <text x="132" y="132" fill="#F8FAFC" font-family="Arial, sans-serif" font-size="18" font-weight="700">mqtt</text>
    <text x="132" y="158" fill="rgba(248,250,252,0.86)" font-family="Arial, sans-serif" font-size="10.5" font-weight="500">Framework For using cloud based</text><text x="132" y="170" fill="rgba(248,250,252,0.86)" font-family="Arial, sans-serif" font-size="10.5" font-weight="500">messeging system using MQTT</text>
  </svg>