<svg width="320" height="192" viewBox="0 0 320 192" xmlns="http://www.w3.org/2000/svg">
  <defs>
    <linearGradient id="bg" x1="0" y1="0" x2="1" y2="1">
      <stop offset="0%" stop-color="#082a64"/>
      <stop offset="100%" stop-color="#1d88de"/>
    </linearGradient>
    <linearGradient id="panel" x1="0" y1="0" x2="1" y2="1">
      <stop offset="0%" stop-color="rgba(236,248,255,0.24)"/>
      <stop offset="100%" stop-color="rgba(236,248,255,0.08)"/>
    </linearGradient>
  </defs>

  <rect width="320" height="192" rx="18" fill="url(#bg)"/>
  <rect x="12" y="12" width="296" height="168" rx="14" fill="rgba(255,255,255,0.06)" stroke="rgba(205,236,255,0.45)"/>

  <path d="M0 152C52 132 114 128 168 136C221 144 272 144 320 132V192H0Z" fill="#8fd7ff" fill-opacity="0.22"/>

  <rect x="24" y="30" width="130" height="102" rx="12" fill="url(#panel)" stroke="rgba(230,246,255,0.45)"/>
  <path d="M60 68a30 30 0 0 1 58 0" fill="none" stroke="#d9f3ff" stroke-width="5" stroke-linecap="round"/>
  <path d="M70 78a20 20 0 0 1 38 0" fill="none" stroke="#d9f3ff" stroke-width="5" stroke-linecap="round"/>
  <path d="M80 88a10 10 0 0 1 18 0" fill="none" stroke="#d9f3ff" stroke-width="5" stroke-linecap="round"/>
  <circle cx="89" cy="97" r="4.5" fill="#eaf8ff"/>

  <rect x="168" y="30" width="128" height="102" rx="12" fill="url(#panel)" stroke="rgba(230,246,255,0.45)"/>
  <path d="M184 82h20l8-12 12 24 10-18 8 12h18" fill="none" stroke="#eaf8ff" stroke-width="5" stroke-linecap="round" stroke-linejoin="round"/>
  <circle cx="224" cy="82" r="33" fill="none" stroke="rgba(234,248,255,0.28)" stroke-width="8"/>
  <path d="M264 52c-2.9 0-5.1 1.4-6.5 3.5-1.4-2.1-3.6-3.5-6.5-3.5-4.3 0-7.5 3.4-7.5 7.8 0 7.3 8.7 12.5 14 17 5.3-4.5 14-9.7 14-17 0-4.4-3.2-7.8-7.5-7.8z" fill="#ff4d6d"/>
  <path d="M249 65h4l2-4 2.5 7 2.5-5h4" fill="none" stroke="#ffd6de" stroke-width="1.8" stroke-linecap="round" stroke-linejoin="round"/>

  <rect x="24" y="142" width="272" height="18" rx="9" fill="rgba(8,42,100,0.45)"/>
  <rect x="32" y="146" width="162" height="10" rx="5" fill="rgba(210,240,255,0.85)"/>
  <circle cx="276" cy="151" r="5" fill="#eaf8ff"/>
</svg>
