
  <svg width="320" height="192" viewBox="0 0 320 192" xmlns="http://www.w3.org/2000/svg">
    <defs>
      <linearGradient id="bg" x1="0" y1="0" x2="1" y2="1">
        <stop offset="0%" stop-color="#182825"/>
        <stop offset="100%" stop-color="#3B5249"/>
      </linearGradient>
      <linearGradient id="panel" x1="0" y1="0" x2="1" y2="1">
        <stop offset="0%" stop-color="rgba(255,255,255,0.16)"/>
        <stop offset="100%" stop-color="rgba(255,255,255,0.04)"/>
      </linearGradient>
    </defs>
    <rect width="320" height="192" rx="24" fill="url(#bg)"/>
    <path d="M0 138C55 116 102 112 154 124C198 134 248 132 320 104V192H0Z" fill="#84A98C" fill-opacity="0.16"/>
    <path d="M0 160C65 142 120 140 182 150C236 159 281 159 320 146V192H0Z" fill="#CAD2C5" fill-opacity="0.15"/>
    <rect x="14" y="14" width="292" height="164" rx="18" fill="rgba(255,255,255,0.04)" stroke="rgba(255,255,255,0.22)" stroke-width="1.5"/>
    <rect x="20" y="22" width="94" height="94" rx="20" fill="rgba(255,255,255,0.06)" stroke="rgba(255,255,255,0.18)" stroke-width="1.5"/>
    <g transform="translate(30 34) scale(0.42)">
      <path d="M22 10C22 2 29 0 38 0H182C191 0 198 2 198 10V176C198 184 191 186 182 186H38C29 186 22 184 22 176V10Z" fill="#F8FAFC" fill-opacity="0.11" stroke="#F8FAFC" stroke-width="8"/>
      <path d="M108 0V186" stroke="#F8FAFC" stroke-opacity="0.28" stroke-width="6"/>
      <rect x="44" y="34" width="40" height="10" rx="5" fill="#F8FAFC" fill-opacity="0.72"/>
      <rect x="44" y="58" width="52" height="10" rx="5" fill="#F8FAFC" fill-opacity="0.4"/>
      <rect x="126" y="34" width="36" height="10" rx="5" fill="#F8FAFC" fill-opacity="0.72"/>
      <rect x="126" y="58" width="28" height="10" rx="5" fill="#F8FAFC" fill-opacity="0.4"/>
    </g>
    <rect x="124" y="26" width="170" height="62" rx="14" fill="rgba(255,255,255,0.05)"/>
    <rect x="20" y="126" width="274" height="44" rx="14" fill="rgba(7,14,32,0.18)"/>
    <text x="132" y="132" fill="#F8FAFC" font-family="Arial, sans-serif" font-size="18" font-weight="700">research_public-QUANT</text>
    <text x="132" y="158" fill="rgba(248,250,252,0.86)" font-family="Arial, sans-serif" font-size="10.5" font-weight="500">Quantitative research and</text><text x="132" y="170" fill="rgba(248,250,252,0.86)" font-family="Arial, sans-serif" font-size="10.5" font-weight="500">educational materials</text>
  </svg>